Coordinates
version=1
nRows=7
nColumns=42
inDegrees=yes

Units are S.I. units (second, meters, Newtons, ...)
If the header above contains a line with 'inDegrees', this indicates whether rotational values are in degrees (yes) or radians (no).

endheader
time	pelvis_tilt	pelvis_list	pelvis_rotation	pelvis_tx	pelvis_ty	pelvis_tz	hip_flexion_r	hip_adduction_r	hip_rotation_r	knee_angle_r	knee_adduction_r	knee_angle_r_beta	ankle_angle_r	subtalar_angle_r	mtp_angle_r	hip_flexion_l	hip_adduction_l	hip_rotation_l	knee_angle_l	knee_adduction_l	knee_angle_l_beta	ankle_angle_l	subtalar_angle_l	mtp_angle_l	lumbar_extension	lumbar_bending	lumbar_rotation	arm_flex_r	arm_add_r	arm_rot_r	elbow_flex_r	pro_sup_r	wrist_flex_r	wrist_dev_r	arm_flex_l	arm_add_l	arm_rot_l	elbow_flex_l	pro_sup_l	wrist_flex_l	wrist_dev_l
      1.04000000	     11.28637035	      2.99165756	      8.76429097	     -1.61745132	      0.91247698	      0.00506988	     10.00020170	    -12.22242501	    -27.95756602	     26.74043930	      7.45267721	      0.46670871	     10.10836103	     31.91876474	     -7.98524767	    -17.50320007	      5.53852631	     -4.63936575	     17.74459952	     -3.32317298	      0.30970169	     19.28922723	      3.88694179	     -7.98524767	    -32.44503660	     -6.09442657	    -10.44158543	    -22.87006588	    -12.71238090	     12.35542640	     40.22126979	     90.00000001	      0.00000000	      0.00000000	     31.44204291	    -13.45500428	      4.42433233	     37.83896250	     90.00000001	      0.00000000	      0.00000000
      1.05000000	     11.24705643	      3.09575571	      8.79662626	     -1.60887654	      0.91161022	      0.00521598	      9.66379099	    -12.26696438	    -29.29261681	     24.88948766	      7.77279863	      0.43440351	      9.10121487	     33.23056615	     -7.97693153	    -18.09605933	      5.52011969	     -4.47712967	     17.73431396	     -3.27931766	      0.30952217	     19.29452446	      3.78887616	     -7.97693153	    -32.26625400	     -6.15990705	    -10.41930055	    -23.09305826	    -12.61605989	     12.14528423	     40.13392824	     90.00000001	      0.00000000	      0.00000000	     31.56462437	    -13.39103883	      4.72529947	     37.41805425	     90.00000001	      0.00000000	      0.00000000
      1.06000000	     11.26448785	      3.10091447	      8.82229415	     -1.60007974	      0.91087008	      0.00545305	      9.23078387	    -12.14620971	    -30.64428580	     23.14289030	      8.00577952	      0.40391963	      8.10475367	     34.33359676	     -7.96665444	    -18.78405701	      5.38576875	     -4.34001579	     17.64332055	     -3.25577081	      0.30793403	     19.25250070	      3.72581606	     -7.96665444	    -32.11674455	     -6.09982710	    -10.31606484	    -23.26724363	    -12.53374267	     11.87072871	     40.04414765	     90.00000001	      0.00000000	      0.00000000	     31.61431048	    -13.31497633	      5.02888223	     37.06342361	     90.00000001	      0.00000000	      0.00000000
      1.07000000	     11.14752515	      3.21070335	      8.85094869	     -1.59130996	      0.90992673	      0.00554731	      8.96224219	    -12.23483685	    -31.76961331	     21.76247923	      8.34479848	      0.37982692	      7.48770293	     35.08425188	     -7.96432545	    -19.31967784	      5.44428047	     -4.22860070	     17.57528326	     -3.37511736	      0.30674656	     19.18716317	      3.74896502	     -7.96432545	    -31.84185813	     -6.14445809	    -10.30488033	    -23.33596574	    -12.49099557	     11.75651880	     39.88806712	     90.00000001	      0.00000000	      0.00000000	     31.61520176	    -13.25085343	      5.21685705	     36.64340307	     90.00000001	      0.00000000	      0.00000000
      1.08000000	     10.96480415	      3.32867637	      8.61849296	     -1.58240230	      0.90881807	      0.00613588	      9.00135454	    -12.35918651	    -32.59645042	     21.11001062	      8.61045704	      0.36843919	      7.39010316	     35.17038587	     -7.96406873	    -19.78735645	      5.52350889	     -4.34763306	     17.54419649	     -3.30156866	      0.30620399	     19.22392621	      3.70998448	     -7.96406873	    -31.48304334	     -6.30745146	    -10.06492121	    -23.37421001	    -12.49684993	     11.72654077	     39.80771890	     90.00000001	      0.00000000	      0.00000000	     31.45619057	    -13.18885138	      5.27348002	     36.49861704	     90.00000001	      0.00000000	      0.00000000
      1.09000000	     11.29754423	      3.03979092	      8.87768732	     -1.57301923	      0.90897127	      0.00640007	      7.85654425	    -11.76394913	    -33.82999353	     19.25758813	      8.87709058	      0.33610832	      5.48146172	     36.28261197	     -7.95815688	    -20.85244603	      4.83489146	     -4.07543881	     17.34429572	     -3.08717151	      0.30271507	     18.95038464	      3.72098062	     -7.95815688	    -31.60460316	     -5.77234938	     -9.96210463	    -23.27224546	    -12.34329488	     11.29087082	     39.49567183	     90.00000001	      0.00000000	      0.00000000	     31.44972913	    -13.11097532	      5.59415229	     35.97920794	     90.00000001	      0.00000000	      0.00000000
      1.10000000	     11.37118493	      2.91005815	      8.90443184	     -1.56374474	      0.90861448	      0.00687640	      7.31656062	    -11.46584308	    -34.39375961	     18.36106760	      9.12919924	      0.32046108	      4.84884656	     36.39812690	     -7.95035023	    -21.57145854	      4.50583321	     -3.97233212	     17.31355439	     -3.03308316	      0.30217853	     18.72608069	      3.68111447	     -7.95035023	    -31.48496353	     -5.52276507	     -9.80158572	    -23.07376002	    -12.29131970	     11.08094637	     39.19986166	     90.00000001	      0.00000000	      0.00000000	     31.27539458	    -13.07464776	      5.72965617	     35.69224486	     90.00000001	      0.00000000	      0.00000000
